<?xml version="1.0" encoding="iso-8859-1"?>
<!-- Generator: Adobe Illustrator 23.0.3, SVG Export Plug-In . SVG Version: 6.00 Build 0)  -->
<svg version="1.1" id="Layer_1" xmlns="http://www.w3.org/2000/svg" xmlns:xlink="http://www.w3.org/1999/xlink" x="0px" y="0px"
	 viewBox="0 0 40 504" style="enable-background:new 0 0 40 504;" xml:space="preserve">
<path style="fill:#ED4725;" d="M14,0v24c0,0,4,19,0,34s2,55,2,55s1,31-3,54s1,87,1,87s3,37,0,57s-2,77,0,85s2,63,2,79s5,29,5,29
	s6-53,6-74s2-72,0-94s-3-84-3-84s3-37,4-69s-7-74,0-119c0,0,7-19,0-64L14,0z"/>
</svg>
